<?xml version="1.0" encoding="UTF-8"?>
<svg id="Layer_1" data-name="Layer 1" xmlns="http://www.w3.org/2000/svg" viewBox="0 0 640 333">
  <defs>
    <style>
      .cls-1 {
        fill: #d73f27;
      }

      .cls-2 {
        fill: #f7e015;
      }

      .cls-3 {
        fill: #174da1;
      }
    </style>
  </defs>
  <rect class="cls-3" x="-20.8" y="-94.16" width="672.86" height="448.57"/>
  <g>
    <circle class="cls-2" cx="319.99" cy="166.5" r="154.73"/>
    <path class="cls-3" d="M440.53,69.5c-13.49,9.23-16.5,28.33-21.6,44.27-2.32,5.41-6.95,10.82-11.59,12.37-9.28,3.09-6.18-10.82-10.82-15.46-3.87-2.32-8.5,.77-10.05,4.63-4.63,10.82-5.41,26.28-16.23,29.37-13.91,4.63-26.28-13.91-40.97-17.77-13.14-3.09-26.28,10.82-30.92,23.95-10.05,25.51-3.86,52.56,6.18,76.53-9.27,1.54-17.77-3.09-25.51-6.96-24.73-13.16-55.66-13.16-78.08,6.94-.54,.62-1.18,1.16-1.88,1.59-5.67,3.01-11.43,5.34-17.52,6.7,3.38,6.77,7.26,13.27,11.6,19.47,10.91-2.78,21.08-7.41,31.76-13.06,20.1-10.82,45.61,1.55,65.7,10.82,24.73,11.59,44.82-10.05,57.97-30.92,4.63-7.72,13.92-16.23,20.87-12.37,14.7,7.72,18.55,25.51,28.6,39.42,5.41,8.5,17,8.5,23.95,3.87,4.63-2.32,6.96-9.28,12.37-6.96,5.13,1.86,10.42,3.28,15.8,4.22,35.97-56.02,32.09-128.77-9.64-180.65Z"/>
    <path class="cls-1" d="M322.71,219.41c13.91-11.59,20.09-27.06,31.69-40.2,6.18-6.18,13.14-6.18,20.1-.77,13.91,11.59,23.95,23.95,31.69,40.2,.78,1.55,3.86,6.18,5.41,3.86,7.72-10.82,4.63-23.19,3.09-35.55-.78-9.28-4.63-18.55-.78-26.28,2.32-4.63,7.72,2.32,9.28,5.41,4.63,10.05,10.82,19.32,14.7,29.39,1.55,5.41,4.63,10.05,6.18,15.46,2.37,9.02,9.12,14.83,17,19.22,23.93-53.15,16-115.23-20.54-160.65-13.49,9.23-16.5,28.33-21.6,44.27-2.33,5.42-6.97,10.82-11.59,12.37-9.28,3.09-6.18-10.82-10.82-15.46-3.87-2.32-8.5,.77-10.05,4.63-4.63,10.82-5.41,26.28-16.23,29.37-13.91,4.63-26.28-13.91-40.97-17.78-13.14-3.09-26.28,10.82-30.92,23.95-10.05,25.51-3.86,52.56,6.18,76.53-.34,.05-.68,.09-1.02,.13,6.18,.75,13.78-3.66,19.19-8.09Z"/>
  </g>
</svg>