<?xml version="1.0" encoding="UTF-8"?>
<svg id="Layer_1" data-name="Layer 1" xmlns="http://www.w3.org/2000/svg" viewBox="0 0 979.01 994.67">
  <defs>
    <style>
      .cls-1 {
        fill: #fff;
      }
    </style>
  </defs>
  <path class="cls-1" d="M704.29,0c3.54,.93,7.09,1.87,11.19,2.94-1.53,6.62-2.9,13.26-4.63,19.8-1.13,4.26,.27,5.91,4.52,5.82,2.45-.05,4.92,.26,8.54,.48-23.24,81.07-54.03,158.58-86.75,236.09,1.48-1.09,3.2-1.97,4.4-3.3,19.56-21.58,39.45-42.87,58.46-64.93,28.67-33.28,56.71-67.1,85.02-100.69,1.06-1.25,2.15-2.48,3.46-3.99,3.79,3.6,7.37,7,11.18,10.63,4.44-6.27,8.63-12.59,13.27-18.54,1.92-2.47,5.37-6.3,7.16-5.83,4.62,1.2,8.85,4.26,12.88,7.08,.69,.49,.17,3.81-.72,5.25-3.32,5.37-7.04,10.48-10.56,15.72-1.07,1.6-1.99,3.3-3.38,5.63,4.35,1.44,8.06,2.66,12.22,4.04-50.05,66.95-105.9,128.6-163.9,188.4,.37,.5,.73,1.01,1.1,1.51,6.81-3.22,13.74-6.2,20.4-9.71,55.15-29.03,108.3-61.46,161.18-94.37,8.17-5.09,16.63-9.72,24.92-14.61,3.16-1.87,5.25-2.08,7.38,1.89,3.53,6.59,4.42,6.58,10.73,2.7,5.08-3.12,10.08-6.36,15.44-9.75,2.98,3.94,5.89,7.75,8.76,11.6,2.43,3.27,1.65,5.89-1.82,7.76-5.25,2.83-10.54,5.61-16.07,8.54,3.68,3.3,7.21,6.47,11.53,10.35-106.11,72.98-219.59,130.91-337.61,183.74,4.49,5.81,7.9,10.6,11.82,14.92,.68,.75,3.66-.17,5.38-.84,30.18-11.61,60.12-23.9,90.53-34.87,73.1-26.35,147.28-49.25,222.89-67.33,13.89-3.32,27.91-6.1,41.88-9.08,1.39-.3,2.86-.23,5.21-.4-.64,4.29-1.19,7.97-1.75,11.74h25.29c1.64,4.54,3.4,9.4,5.16,14.26v3c-8.19,.71-16.39,1.32-24.56,2.2-2.59,.28-3.26,1.95-2.64,4.72,2.17,9.68,1.83,10.43-7.96,13-34.67,9.12-69.47,17.74-104.07,27.12-62.48,16.93-124.21,36.21-184.18,60.77-6.9,2.83-13.68,5.96-20.44,9.11-2.51,1.17-4.8,2.82-6.99,4.13,.07,.85-.02,1.35,.15,1.47,10.22,6.95,21.31,11.71,33.86,10.45,7.67-.77,12.81-5.68,15.35-13.2,.77-2.28,1.93-4.87,3.73-6.24,1.72-1.31,4.67-1.95,6.76-1.48,1.23,.28,2.71,3.37,2.58,5.08-.69,9.23-.81,18.69-3.09,27.57-3.53,13.77-16.29,21.43-31.51,20.55-14.73-.85-27.63-6.94-39.75-14.67-31.17-19.87-55.11-46.84-74.85-77.72-12.92-20.22-23.69-41.51-29.28-65.06-2.95-12.42-3.59-24.98-1.61-37.64,2.78-17.77,13.05-26.38,30.94-24.99,6.55,.51,13.02,2.43,19.44,4.03,3.8,.95,4.89,3.86,2.3,6.74-2.42,2.7-5.42,5.55-8.73,6.61-4.1,1.32-6.74,3.37-8.14,7.19-3.74,10.19-3.72,20.69-2.79,31.24,.42,.22,.85,.44,1.27,.66,1.89-2.71,4.13-5.23,5.61-8.15,10.76-21.14,21.84-42.13,31.93-63.58,32.87-69.93,58.28-142.75,82.96-215.84,2.86-8.48,5.95-16.89,9.07-25.29,.72-1.95,2-3.69,3.18-5.82,2.25,1.51,3.98,2.78,5.81,3.86,4.52,2.66,6.6,2.06,8.35-2.84,1.5-4.21,2.38-8.63,3.73-12.9,.74-2.32,1.89-4.5,2.86-6.75,2,0,4,0,5.99,0Z"/>
  <path class="cls-1" d="M504.07,298.85c-4.96,12.36-6.46,24.66-5.01,37.5,2.31,20.61,8.94,39.83,18.69,57.95,20.81,38.7,48.37,71.55,85.1,96.16,14.54,9.74,30.21,16.74,48.18,17.06,.9,.02,1.8,.45,3.51,.91-3.56,2.54-6.46,4.68-9.42,6.73-99.23,68.7-186.92,150.18-266.21,240.91-57.5,65.79-108.85,136.02-152.05,212.07-1.31,2.31-2.94,4.44-4.18,6.79-7.87,14.86-20.69,19.91-36.83,19.74-24.64-.26-47.51-6.99-69.47-17.5-36.49-17.46-68.41-40.94-94.05-72.45-8.43-10.36-15.48-21.58-19.66-34.43-4.18-12.84-3.71-25.11,3.62-36.85,13.55-21.7,26.55-43.75,40.51-65.19,77.44-118.97,167.8-227.1,272.1-323.48,56.8-52.48,117.19-100.45,181.42-143.55,1.23-.83,2.51-1.59,3.77-2.38Z"/>
</svg>