<?xml version="1.0" encoding="UTF-8"?>
<svg id="Layer_1" data-name="Layer 1" xmlns="http://www.w3.org/2000/svg" viewBox="0 0 365.47 94.55">
  <defs>
    <style>
      .cls-1 {
        fill: #fff;
        stroke: #fff;
        stroke-miterlimit: 10;
        stroke-width: 3px;
      }
    </style>
  </defs>
  <path class="cls-1" d="M12.86,17.76c4.09-6.19,10.2-7.91,17.18-7.91,42.61,.03,85.23,0,127.84,.02,2.21,0,5.07-.64,6.54,.48,22.72,17.08,46.85,4.08,70.15,2.89,26.97-1.39,53.82-5.49,80.72-8.33,3.3-.35,6.83-1.18,10.06,4.63-55.59,6.01-111.18,12.02-168.04,18.16,2.03-8.47,8.05-5.43,11.69-8.03-4.35-4.96-9.45-5.6-14.76-2.59-8.43,4.76-13.23,12.18-14.72,21.82-1.86,11.97,1.16,23.19,4.99,34.31,.95,1.54,.69,2.85-.74,3.94-13.6-4.58-12.47-16.79-13.83-27.43-.85-6.63-.09-13.44,2.93-19.56,3.87-7.82,2.45-11.36-6.94-11.09-34.64,.97-69.33-1.64-103.94,1.61-1.78,.17-3.54,0-5.31-.35-1.53-.45-2.79-1.32-3.8-2.55h-.03Z"/>
  <path class="cls-1" d="M167.38,78.9c2.48-9.51-9.79-.98-9.19-10.84,55.65,5.95,111.31,11.89,167.55,17.9-2.46,7.14-6.5,4.87-9.59,4.56-40.2-4.19-80.4-8.45-120.57-12.84-8.73-.95-17.44-2.83-24.75,4.17-1.77-.24-2.96-1.18-3.44-2.93h0Z"/>
  <path class="cls-1" d="M150.56,33.55c55.31-2.68,110.6-5.36,165.9-8.03,.1,1.88,.18,3.77,.28,5.65-55.31,2.71-110.6,5.4-165.9,8.11-.1-1.91-.18-3.82-.28-5.72h0Z"/>
  <path class="cls-1" d="M316.24,69.97c-55.16-2.58-110.33-5.15-165.49-7.73,.08-1.86,.16-3.73,.24-5.58,55.16,2.53,110.34,5.05,165.51,7.58-.08,1.91-.17,3.82-.25,5.72h0Z"/>
  <path class="cls-1" d="M167.38,78.9c1.15,.98,2.3,1.95,3.44,2.93-4.53,4.79-10.57,3.87-16.16,3.88-40.23,.12-80.48,.03-120.71,.09-9.65,.01-18.61-1.16-23.63-10.98-.91-3.36,1.12-4.34,3.85-4.73,11.19,4.7,22.89,5.38,34.89,5.23,25.1-.31,50.21,.03,75.31-.19,6.66-.06,13.09,1.27,19.63,1.88,.16-1.28,.31-2.55,.47-3.82,7.24,3.5,13.97,9.02,22.89,5.69h.01Z"/>
  <path class="cls-1" d="M144.29,49.7c-2.17-.33-3.23-1.44-1.66-3.36,2.34-2.86,5.75-1.73,8.71-1.73,48.35-.07,96.7-.09,145.05,.04,2.65,0,6.45-1.86,7.72,2.68-6.4,2.56-13.09,1.13-19.62,1.15-42.39,.16-84.77,.05-127.16,.13-4.35,0-8.84-.96-13.05,1.09h0Z"/>
  <path class="cls-1" d="M144.29,49.7c3.07-3.73,7.34-2.44,11.15-2.44,49.55-.03,99.11,.02,148.66,.06-.13,3.17-2.54,3.09-4.66,3.07-51.72-.21-103.43-.46-155.15-.7Z"/>
  <path class="cls-1" d="M13.22,71.35c-.96,1.16-1.94,2.31-2.9,3.47C-2.34,56.78-1.26,32.7,12.85,17.76c1.18,.1,2.35,.2,3.51,.3-5.23,17.52-4.59,35.39-3.16,53.31h.01Z"/>
  <path class="cls-1" d="M329.1,31.57c-4.49-.42-6.5-2.41-6.25-6.09,.27-3.74,2.71-5.41,6.28-5.07,3.02,.28,4.65,2.28,4.76,5.28,.14,3.82-2.21,5.36-4.8,5.88h.01Z"/>
  <path class="cls-1" d="M350.42,31.53c-4.12-.11-6.29-1.93-6.23-5.65,.04-3.7,2.2-5.65,5.88-5.48,2.99,.14,4.89,1.88,5.14,4.92,.31,3.7-1.67,5.65-4.79,6.22Z"/>
  <path class="cls-1" d="M338.39,1.51c4.42,.67,6.39,2.76,5.91,6.37-.48,3.64-3.17,5.23-6.62,4.75-2.95-.41-4.41-2.65-4.36-5.61,.04-3.81,2.41-5.24,5.07-5.51h0Z"/>
  <path class="cls-1" d="M344.49,86.86c-.41,4.76-2.78,6.3-6.28,6.18-3.05-.1-4.83-1.94-4.89-4.99-.06-3.53,1.57-5.96,5.35-6.04,3.75-.07,5.16,2.54,5.81,4.84h0Z"/>
  <path class="cls-1" d="M320.09,53.25c-3.78-.33-5.68-2.22-5.3-5.98,.3-2.95,2.04-4.93,4.96-5.07,3.54-.17,5.71,1.86,5.92,5.47,.23,3.9-2.27,5.27-5.57,5.58h-.01Z"/>
  <path class="cls-1" d="M339.33,53.19c-3.85-.07-6.02-1.63-5.95-5.47,.07-2.97,1.66-5.17,4.48-5.54,3.43-.45,5.91,1.36,6.42,4.96,.55,3.84-1.78,5.47-4.96,6.06h.01Z"/>
  <path class="cls-1" d="M358.31,52.84c-3.43-.38-5.74-2.37-5.4-5.91,.34-3.41,2.76-5.33,6.4-5.06,3.24,.24,4.53,2.55,4.65,5.3,.16,3.58-1.7,5.71-5.67,5.65h.01Z"/>
  <path class="cls-1" d="M333.88,69.36c-.47,3.81-2.93,5.2-6.37,4.85-2.93-.31-4.68-2.22-4.6-5.26,.08-3.58,2-5.75,5.68-5.62,3.7,.14,5.26,2.52,5.3,6.05h0Z"/>
  <path class="cls-1" d="M355.21,68.59c.07,3.61-1.81,5.57-5.45,5.67-2.96,.09-5.14-1.39-5.48-4.36-.4-3.4,1.06-6.11,4.75-6.53,3.58-.43,5.65,1.57,6.21,5.24h-.01Z"/>
</svg>