<?xml version="1.0" encoding="UTF-8"?>
<svg id="Layer_1" data-name="Layer 1" xmlns="http://www.w3.org/2000/svg" viewBox="0 0 288.9 315.56">
  <defs>
    <style>
      .cls-1 {
        fill: #fff;
      }
    </style>
  </defs>
  <path class="cls-1" d="M47.45,195.91c-4.13,.02-7.2-1.98-9.96-4.88C15.25,167.64,2.53,139.95,.35,107.7-2.34,67.87,10.39,33.54,37.87,4.62c3.59-3.78,7.73-5.63,12.99-3.98,4.78,1.5,7.44,4.9,8.27,9.66,.85,4.93-1.79,8.53-5.01,11.89-12.18,12.69-21.06,27.39-25.72,44.36-11.04,40.19-2.52,75.87,25.39,106.84,3.72,4.13,6.83,8.21,4.85,14.2-1.67,5.05-5.95,8.28-11.18,8.32Z"/>
  <path class="cls-1" d="M288.9,99.47c-.67,34.52-13.01,65.86-38.16,92.01-3.7,3.85-8.02,5.36-13.09,3.82-4.51-1.37-7.18-4.72-8.06-9.31-.94-4.93,1.5-8.58,4.74-11.97,14.24-14.86,23.83-32.28,27.95-52.48,7.68-37.66-1.63-70.72-27.48-99.11-3.12-3.42-6.01-6.85-5.32-11.79,.67-4.79,3.28-8.28,7.98-9.92,4.94-1.72,9.17-.32,12.73,3.26,12.58,12.65,22.19,27.28,28.89,43.8,6.51,16.05,9.57,32.79,9.81,51.68Z"/>
  <path class="cls-1" d="M151.41,214.44c0,29.93,0,59.85,0,89.78,0,1.5,.09,3-.07,4.49-.44,4.25-2.9,6.68-7.13,6.85-4.29,.17-6.8-2.31-7.64-6.36-.33-1.6-.15-3.31-.15-4.97,0-60.85-.03-121.7,.06-182.54,0-3.23-.68-5.25-3.65-7.18-7.63-4.94-10.46-14.35-7.56-22.82,2.85-8.31,10.79-13.97,19.37-13.79,9.06,.19,17,6.46,19.31,15.27,2.19,8.33-1.28,17.55-8.96,21.93-2.97,1.7-3.63,3.5-3.62,6.59,.1,30.92,.06,61.84,.06,92.77Z"/>
  <path class="cls-1" d="M40.95,98.18c.34-27.47,9.8-51.24,28.91-71.06,4.65-4.82,10.26-5.61,15.33-2.54,4.58,2.77,6.63,8.06,5.27,13.38-.6,2.34-1.96,4.19-3.6,5.87-29.25,29.8-29.5,78.26,.07,108.39,3.57,3.64,4.91,7.91,3.35,12.77-1.44,4.48-4.73,7.14-9.36,7.97-4.72,.85-8.35-1.21-11.5-4.52-18.7-19.69-28.05-43.16-28.47-70.25Z"/>
  <path class="cls-1" d="M247.75,98.11c-.44,27.27-9.88,50.89-28.79,70.62-4.66,4.86-10.21,5.72-15.32,2.72-4.63-2.71-6.75-7.94-5.46-13.3,.61-2.54,2.2-4.4,3.89-6.25,29.27-32,29.18-75.89-.21-108.05-5.28-5.78-5.44-12.97-.39-17.75,5.13-4.86,12.2-4.46,17.69,1.3,18.85,19.77,28.23,43.42,28.6,70.7Z"/>
  <path class="cls-1" d="M83.79,98.32c-.13-17.45,5.98-34.32,19.45-48.29,5.25-5.45,12.35-5.83,17.3-1.21,5.03,4.69,5.44,11.82,.13,17.3-17.26,17.82-17.11,46.31,.1,63.85,5.3,5.4,4.74,12.65-.37,17.27-5.12,4.64-11.88,4.19-17.26-1.39-12.27-12.74-18.51-28.07-19.36-47.52Z"/>
  <path class="cls-1" d="M204.93,97.84c-.31,17.98-6.21,33.79-18.48,47.06-5.99,6.48-12.91,7.26-18.32,2.21-5.26-4.91-5.08-11.75,.47-18.1,16.67-19.07,16.62-42.78-.13-62.22-5.62-6.52-5.54-13.65,.2-18.38,5.19-4.28,11.7-3.7,16.9,1.73,12.77,13.32,18.97,29.34,19.36,47.71Z"/>
</svg>